<svg aria-hidden="true" style="position: absolute; width: 0; height: 0; overflow: hidden;" version="1.1" xmlns="http://www.w3.org/2000/svg" xmlns:xlink="http://www.w3.org/1999/xlink">
<defs>
<symbol id="icon-page-prev" viewBox="0 0 32 32">
<path stroke-linejoin="miter" stroke-linecap="butt" stroke-miterlimit="4" stroke-width="1" d="M16 31.5c8.56 0 15.5-6.94 15.5-15.5s-6.94-15.5-15.5-15.5c-8.56 0-15.5 6.94-15.5 15.5s6.94 15.5 15.5 15.5z"></path>
<path d="M14.833 15.408c-0.078 0.078-0.14 0.17-0.182 0.271s-0.064 0.21-0.064 0.321 0.022 0.219 0.064 0.32c0.042 0.102 0.104 0.194 0.182 0.271l3.825 3.817c0.078 0.078 0.14 0.17 0.182 0.271s0.064 0.21 0.064 0.32-0.022 0.219-0.064 0.32c-0.042 0.102-0.104 0.194-0.182 0.271-0.156 0.155-0.367 0.242-0.587 0.242s-0.431-0.087-0.587-0.242l-3.825-3.825c-0.468-0.469-0.731-1.104-0.731-1.767s0.263-1.298 0.731-1.767l3.825-3.825c0.155-0.154 0.365-0.241 0.583-0.242 0.11-0.001 0.218 0.020 0.32 0.062s0.194 0.103 0.272 0.18c0.078 0.078 0.14 0.17 0.182 0.271s0.064 0.21 0.064 0.321-0.022 0.219-0.064 0.32c-0.042 0.101-0.104 0.194-0.182 0.271l-3.825 3.817z"></path>
</symbol>
<symbol id="icon-page-next" viewBox="0 0 32 32">
<path stroke-linejoin="miter" stroke-linecap="butt" stroke-miterlimit="4" stroke-width="1" d="M16 0.5c-8.56 0-15.5 6.94-15.5 15.5s6.94 15.5 15.5 15.5c8.56 0 15.5-6.94 15.5-15.5s-6.94-15.5-15.5-15.5z"></path>
<path d="M17.167 16.592c0.078-0.078 0.14-0.17 0.182-0.271s0.064-0.21 0.064-0.32-0.022-0.219-0.064-0.32c-0.042-0.101-0.104-0.194-0.182-0.271l-3.825-3.817c-0.078-0.078-0.14-0.17-0.182-0.271s-0.064-0.21-0.064-0.321 0.022-0.219 0.064-0.32c0.042-0.101 0.104-0.194 0.182-0.271 0.156-0.155 0.367-0.242 0.588-0.242s0.431 0.087 0.588 0.242l3.825 3.825c0.468 0.469 0.731 1.104 0.731 1.767s-0.263 1.298-0.731 1.767l-3.825 3.825c-0.155 0.154-0.365 0.241-0.583 0.242-0.11 0.001-0.218-0.020-0.32-0.062s-0.194-0.103-0.272-0.18c-0.078-0.078-0.14-0.17-0.182-0.271s-0.064-0.21-0.064-0.32 0.022-0.219 0.064-0.32c0.042-0.102 0.104-0.194 0.182-0.271l3.825-3.817z"></path>
</symbol>
<symbol id="icon-page-first" viewBox="0 0 32 32">
<path stroke-linejoin="miter" stroke-linecap="butt" stroke-miterlimit="4" stroke-width="1" d="M16 31.5c8.56 0 15.5-6.94 15.5-15.5s-6.94-15.5-15.5-15.5c-8.56 0-15.5 6.94-15.5 15.5s6.94 15.5 15.5 15.5z"></path>
<path d="M10.833 15.408c-0.078 0.078-0.14 0.17-0.182 0.271s-0.064 0.21-0.064 0.321 0.022 0.219 0.064 0.32c0.042 0.102 0.104 0.194 0.182 0.271l3.825 3.817c0.078 0.078 0.14 0.17 0.182 0.271s0.064 0.21 0.064 0.32-0.022 0.219-0.064 0.32c-0.042 0.102-0.104 0.194-0.182 0.271-0.156 0.155-0.367 0.242-0.588 0.242s-0.431-0.087-0.588-0.242l-3.825-3.825c-0.468-0.469-0.731-1.104-0.731-1.767s0.263-1.298 0.731-1.767l3.825-3.825c0.155-0.154 0.365-0.241 0.583-0.242 0.11-0.001 0.218 0.020 0.32 0.062s0.194 0.103 0.272 0.18c0.078 0.078 0.14 0.17 0.182 0.271s0.064 0.21 0.064 0.321-0.022 0.219-0.064 0.32c-0.042 0.101-0.104 0.194-0.182 0.271l-3.825 3.817z"></path>
<path d="M17.833 15.408c-0.078 0.078-0.14 0.17-0.182 0.271s-0.064 0.21-0.064 0.321 0.022 0.219 0.064 0.32c0.042 0.102 0.104 0.194 0.182 0.271l3.825 3.817c0.078 0.078 0.14 0.17 0.182 0.271s0.064 0.21 0.064 0.32-0.022 0.219-0.064 0.32c-0.042 0.102-0.104 0.194-0.182 0.271-0.156 0.155-0.367 0.242-0.587 0.242s-0.431-0.087-0.587-0.242l-3.825-3.825c-0.468-0.469-0.731-1.104-0.731-1.767s0.263-1.298 0.731-1.767l3.825-3.825c0.155-0.154 0.365-0.241 0.583-0.242 0.11-0.001 0.218 0.020 0.32 0.062s0.194 0.103 0.272 0.18c0.078 0.078 0.14 0.17 0.182 0.271s0.064 0.21 0.064 0.321-0.022 0.219-0.064 0.32c-0.042 0.101-0.104 0.194-0.182 0.271l-3.825 3.817z"></path>
</symbol>
<symbol id="icon-page-last" viewBox="0 0 32 32">
<path stroke-linejoin="miter" stroke-linecap="butt" stroke-miterlimit="4" stroke-width="1" d="M16 0.5c-8.56 0-15.5 6.94-15.5 15.5s6.94 15.5 15.5 15.5c8.56 0 15.5-6.94 15.5-15.5s-6.94-15.5-15.5-15.5z"></path>
<path d="M21.167 16.592c0.078-0.078 0.14-0.17 0.182-0.271s0.064-0.21 0.064-0.32-0.022-0.219-0.064-0.32c-0.042-0.101-0.104-0.194-0.182-0.271l-3.825-3.817c-0.078-0.078-0.14-0.17-0.182-0.271s-0.064-0.21-0.064-0.321 0.022-0.219 0.064-0.32c0.042-0.101 0.104-0.194 0.182-0.271 0.156-0.155 0.367-0.242 0.587-0.242s0.431 0.087 0.587 0.242l3.825 3.825c0.468 0.469 0.731 1.104 0.731 1.767s-0.263 1.298-0.731 1.767l-3.825 3.825c-0.155 0.154-0.365 0.241-0.583 0.242-0.11 0.001-0.218-0.020-0.32-0.062s-0.194-0.103-0.272-0.18c-0.078-0.078-0.14-0.17-0.182-0.271s-0.064-0.21-0.064-0.32 0.022-0.219 0.064-0.32c0.042-0.102 0.104-0.194 0.182-0.271l3.825-3.817z"></path>
<path d="M14.167 16.592c0.078-0.078 0.14-0.17 0.182-0.271s0.064-0.21 0.064-0.32-0.022-0.219-0.064-0.32c-0.042-0.101-0.104-0.194-0.182-0.271l-3.825-3.817c-0.078-0.078-0.14-0.17-0.182-0.271s-0.064-0.21-0.064-0.321 0.022-0.219 0.064-0.32c0.042-0.101 0.104-0.194 0.182-0.271 0.156-0.155 0.367-0.242 0.588-0.242s0.431 0.087 0.588 0.242l3.825 3.825c0.468 0.469 0.731 1.104 0.731 1.767s-0.263 1.298-0.731 1.767l-3.825 3.825c-0.155 0.154-0.365 0.241-0.583 0.242-0.11 0.001-0.218-0.020-0.32-0.062s-0.194-0.103-0.272-0.18c-0.078-0.078-0.14-0.17-0.182-0.271s-0.064-0.21-0.064-0.32 0.022-0.219 0.064-0.32c0.042-0.102 0.104-0.194 0.182-0.271l3.825-3.817z"></path>
</symbol>
</defs>
</svg>
