<svg aria-hidden="true" style="position:absolute;width:0;height:0;overflow:hidden"
  xmlns="http://www.w3.org/2000/svg">
  <defs>
    <symbol id="icon-logo" viewBox="0 0 132 24">
      <path
        d="M4.98 13.28l-4.98-8.28h2.98l3.34 5.74h0.040l3.34-5.74h2.98l-4.98 8.28v5.72h-2.72v-5.72zM12.67 16.7v-9.4l2.3-2.3h7.2l2.3 2.3v9.4l-2.3 2.3h-7.2l-2.3-2.3zM20.73 16.68l1.020-1.020v-7.32l-1.020-1.020h-4.32l-1.020 1.020v7.32l1.020 1.020h4.32zM26.374 16.6v-11.6h2.72v10.66l1.020 1.020h3.92l1.020-1.020v-10.66h2.72v11.6l-2.4 2.4h-6.6l-2.4-2.4zM50.878 14.36v4.64h-2.72v-4.020l-1.2-1.34h-4.36v5.36h-2.72v-14h8.78l2.14 2.16v4.24l-1.36 1.38 1.44 1.58zM42.598 11.4h4.82l0.7-0.7v-2.72l-0.7-0.7h-4.82v4.12zM57.823 5h10.12v2.3h-7.4v3.54h6.82v2.26h-6.82v3.6h7.4v2.3h-10.12v-14zM69.452 5h2.44l6.24 9.5h0.040v-9.5h2.62v14h-2.44l-6.24-9.48h-0.040v9.48h-2.62v-14zM82.898 5h10.12v2.3h-7.4v3.54h6.82v2.26h-6.82v3.6h7.4v2.3h-10.12v-14zM105.527 14.36v4.64h-2.72v-4.020l-1.2-1.34h-4.36v5.36h-2.72v-14h8.78l2.14 2.16v4.24l-1.36 1.38 1.44 1.58zM97.247 11.4h4.82l0.7-0.7v-2.72l-0.7-0.7h-4.82v4.12zM107.323 16.7v-9.4l2.3-2.3h6.96l2.26 2.26v2.14h-2.72v-1.14l-0.94-0.94h-4.12l-1.020 1.020v7.32l1.020 1.020h4.16l0.98-0.98v-2.18h-3v-2.32h5.64v5.5l-2.3 2.3h-6.92l-2.3-2.3zM123.828 13.28l-4.98-8.28h2.98l3.34 5.74h0.040l3.34-5.74h2.98l-4.98 8.28v5.72h-2.72v-5.72z"></path>
    </symbol>
    <symbol id="icon-burger" viewBox="0 0 32 32">
      <path d="M5 7h22c0.552 0 1 0.448 1 1s-0.448 1-1 1h-22c-0.552 0-1-0.448-1-1s0.448-1 1-1z"></path>
      <path d="M5 12.333h22c0.552 0 1 0.448 1 1s-0.448 1-1 1h-22c-0.552 0-1-0.448-1-1s0.448-1 1-1z"></path>
      <path d="M5 17.667h22c0.552 0 1 0.448 1 1s-0.448 1-1 1h-22c-0.552 0-1-0.448-1-1s0.448-1 1-1z"></path>
      <path d="M5 23h22c0.552 0 1 0.448 1 1s-0.448 1-1 1h-22c-0.552 0-1-0.448-1-1s0.448-1 1-1z"></path>
    </symbol>
    <symbol id="icon-youtube" viewBox="0 0 32 32">
      <path
        d="M24.24 6c-1.36-.08-4.16-.16-8.4-.16h-.56c-4.08 0-6.8.08-8.16.24-1.84.16-3.12.64-3.84 1.28-.64.56-1.12 1.6-1.28 2.96-.08.88-.16 2.72-.16 5.52v.4c0 2.64.08 4.48.24 5.36.24 1.28.64 2.24 1.44 2.8.8.64 2.16 1.04 4.08 1.2 1.36.08 4.16.16 8.4.16h.56c4.08 0 6.8-.08 8.16-.24 1.84-.16 3.12-.64 3.84-1.28.64-.56 1.12-1.6 1.28-2.96.08-.88.16-2.72.16-5.52v-.4c0-2.64-.08-4.48-.24-5.36-.24-1.28-.64-2.24-1.44-2.8-.8-.64-2.16-1.04-4.08-1.2zm-3.12 9.84-8.8 5.28V10.56l8.8 5.28z" />
    </symbol>
    <symbol id="icon-facebook" viewBox="0 0 32 32">
      <path
        d="M19.52 4.64h.96v3.6h-1.2c-.48 0-.96 0-1.2.24s-.24.48-.24 1.04v1.28h2.64v3.04h-2.64v13.2h-4.08V13.76H11.6v-3.04h2.16V9.68c0-1.76.24-3.04.72-3.6.72-1.04 2.16-1.52 4.32-1.52.24.08.48.08.72.08z" />
    </symbol>
    <symbol id="icon-instagram" viewBox="0 0 32 32">
      <path
        d="M28.718 10.756a9.264 9.264 0 0 0-.596-3.145 6.547 6.547 0 0 0-3.743-3.737 9.42 9.42 0 0 0-3.108-.596c-1.368-.061-1.801-.078-5.273-.078s-3.916 0-5.274.078a9.413 9.413 0 0 0-3.106.596 6.541 6.541 0 0 0-3.743 3.737 9.288 9.288 0 0 0-.596 3.101c-.061 1.367-.08 1.8-.08 5.265s0 3.909.08 5.265a9.335 9.335 0 0 0 .596 3.104 6.548 6.548 0 0 0 3.744 3.735 9.37 9.37 0 0 0 3.106.639c1.369.061 1.803.08 5.274.08s3.916 0 5.274-.08a9.362 9.362 0 0 0 3.108-.595 6.555 6.555 0 0 0 3.743-3.737 9.35 9.35 0 0 0 .596-3.104c.061-1.365.08-1.798.08-5.265-.003-3.466-.003-3.906-.082-5.264zM15.99 22.531c-3.631 0-6.572-2.936-6.572-6.561s2.941-6.561 6.572-6.561c3.628 0 6.572 2.936 6.572 6.561s-2.944 6.561-6.572 6.561zm6.834-11.835a1.53 1.53 0 1 1 0-3.06 1.53 1.53 0 1 1 0 3.06z" />
      <path d="M15.992 19.976a4.004 4.004 0 1 0 0-8.009 4.004 4.004 0 0 0 0 8.009z" />
    </symbol>
    <symbol id="icon-dumb-bell" viewBox="0 0 34 32">
      <path fill="#242424" style="fill: var(--color1, #242424)"
        d="M32 16c0 8.837-7.163 16-16 16s-16-7.163-16-16c0-8.837 7.163-16 16-16s16 7.163 16 16z"></path>
      <path fill="#f4f4f4" style="fill: var(--color2, #f4f4f4)"
        d="M10.6 11.714h-1.2c-0.332 0-0.6 0.287-0.6 0.643v2.786h-0.6c-0.11 0-0.2 0.096-0.2 0.214v1.286c0 0.118 0.090 0.214 0.2 0.214h0.6v2.786c0 0.356 0.268 0.643 0.6 0.643h1.2c0.332 0 0.6-0.287 0.6-0.643v-7.286c0-0.356-0.268-0.643-0.6-0.643zM23.8 15.143h-0.6v-2.786c0-0.356-0.267-0.643-0.6-0.643h-1.2c-0.332 0-0.6 0.287-0.6 0.643v7.286c0 0.356 0.267 0.643 0.6 0.643h1.2c0.332 0 0.6-0.287 0.6-0.643v-2.786h0.6c0.11 0 0.2-0.096 0.2-0.214v-1.286c0-0.118-0.090-0.214-0.2-0.214zM19.4 10h-1.2c-0.332 0-0.6 0.287-0.6 0.643v4.5h-3.2v-4.5c0-0.356-0.268-0.643-0.6-0.643h-1.2c-0.332 0-0.6 0.287-0.6 0.643v10.714c0 0.356 0.268 0.643 0.6 0.643h1.2c0.332 0 0.6-0.287 0.6-0.643v-4.5h3.2v4.5c0 0.356 0.267 0.643 0.6 0.643h1.2c0.333 0 0.6-0.287 0.6-0.643v-10.714c0-0.356-0.267-0.643-0.6-0.643z"></path>
    </symbol>
    <symbol id="icon-running-man" viewBox="0 0 34 32">
      <path fill="#f4f4f4" style="fill: var(--color2, #f4f4f4)" opacity="0.2"
        d="M32 16c0 8.837-7.163 16-16 16s-16-7.163-16-16c0-8.837 7.163-16 16-16s16 7.163 16 16z"></path>
      <path fill="#f4f4f4" style="fill: var(--color2, #f4f4f4)"
        d="M24.73 11.907c-0.142-0.163-0.35-0.265-0.582-0.265-0.185 0-0.354 0.065-0.487 0.173l0.001-0.001-2.1 1.723-0.965-2.337c-0.036-0.088-0.085-0.163-0.146-0.227l0 0c-0.208-0.45-0.562-0.803-0.999-1.005l-0.013-0.005c-0.183-0.082-0.396-0.14-0.619-0.163l-0.009-0.001c-0.047-0.023-0.090-0.055-0.142-0.071l-3.695-1.006c-0.060-0.016-0.128-0.026-0.198-0.026-0.143 0-0.276 0.039-0.391 0.106l0.004-0.002c-0.21 0.066-0.376 0.219-0.458 0.415l-0.002 0.005-1.391 3.495c-0.15 0.38 0.042 0.809 0.432 0.958 0.081 0.032 0.175 0.050 0.273 0.050 0.317 0 0.589-0.193 0.705-0.468l0.002-0.005 1.175-2.951 1.683 0.457c-0.041 0.065-0.086 0.125-0.119 0.195l-2.157 4.568c-0.031 0.067-0.048 0.135-0.070 0.204l-2.621 4.295-4.387 1.434c-0.276 0.198-0.453 0.518-0.453 0.88 0 0.246 0.082 0.472 0.22 0.654l-0.002-0.003c0.369 0.486 1.070 0.59 1.566 0.23l4.489-1.51c0.137-0.098 0.237-0.225 0.313-0.363 0.056-0.058 0.12-0.105 0.164-0.178l1.563-2.56 2.774 2.31-2.969 3.269c-0.174 0.191-0.281 0.445-0.281 0.725 0 0.327 0.146 0.619 0.376 0.817l0.001 0.001c0.462 0.402 1.17 0.36 1.582-0.093l3.704-4.078c0.115-0.125 0.184-0.27 0.23-0.422 0.028-0.082 0.028-0.168 0.035-0.253 0-0.044 0.016-0.083 0.013-0.123-0.007-0.32-0.155-0.604-0.383-0.795l-0.002-0.001-2.552-2.127c0.185-0.171 0.337-0.375 0.448-0.602l0.005-0.012 1.654-3.5 0.53 1.38c0.020 0.132 0.074 0.249 0.154 0.344l-0.001-0.001c0.078 0.087 0.175 0.154 0.285 0.196l0.005 0.002c0.011 0.006 0.024 0.007 0.038 0.010 0.061 0.025 0.133 0.043 0.207 0.050l0.003 0c0.017 0.001 0.036 0.002 0.055 0.002 0.073 0 0.143-0.011 0.21-0.030l-0.005 0.001 0.003-0.002c0.023-0.005 0.047 0 0.070-0.010 0.119-0.047 0.219-0.12 0.297-0.212l0.001-0.001 3.013-2.498c0.32-0.263 0.185-0.729-0.085-1.042zM20.92 10.126c1.165 0 2.11-0.923 2.11-2.063s-0.945-2.063-2.11-2.063c-1.167 0-2.112 0.924-2.112 2.063 0 1.14 0.945 2.063 2.111 2.063z"></path>
    </symbol>
    <symbol id="icon-inverted-comas" viewBox="0 0 32 32">
      <path fill="#f4f4f4" style="fill: var(--color1, #f4f4f4)"
        d="M8.2 17.469c1.546-0.613 2.786-0.453 3.72 0.48 0.933 0.934 1.21 2.422 0.832 4.464-0.293 1.517-0.934 2.683-1.926 3.499-0.886 0.736-2.034 1.183-3.288 1.183-0.029 0-0.058-0-0.086-0.001l0.004 0c-1.749 0-2.96-0.672-3.632-2.013-0.669-1.371-0.8-3.208-0.392-5.514 0.234-1.253 0.613-2.522 1.136-3.805 0.638-1.515 1.342-2.809 2.156-4.025l-0.054 0.085c0.922-1.386 2.057-2.549 3.372-3.473l0.041-0.027c1.309-0.942 2.874-1.618 4.57-1.914l0.067-0.010-0.438 4.637c-1.429 0.293-2.698 1.037-3.806 2.232-1.080 1.138-1.874 2.558-2.262 4.137l-0.013 0.063zM21.368 17.469c1.547-0.613 2.787-0.453 3.72 0.48 0.933 0.934 1.21 2.422 0.832 4.464-0.293 1.517-0.934 2.683-1.926 3.499-0.886 0.736-2.034 1.183-3.288 1.183-0.028 0-0.056-0-0.084-0.001l0.004 0c-1.75 0-2.96-0.672-3.632-2.013-0.67-1.371-0.8-3.208-0.394-5.514 0.234-1.253 0.613-2.522 1.138-3.805 0.525-1.285 1.226-2.597 2.101-3.938 0.922-1.386 2.057-2.549 3.372-3.473l0.041-0.027c1.309-0.943 2.874-1.619 4.57-1.915l0.067-0.010-0.437 4.637c-1.43 0.293-2.699 1.037-3.808 2.232-1.079 1.138-1.873 2.558-2.26 4.137l-0.013 0.063z"></path>
    </symbol>
    <symbol id="icon-sun" viewBox="0 0 32 32">
      <path
        d="M14.316 13.621l0.365 0.376-4.485-12.908 5.344 12.573 0.018-0.525 0.443-13.139 0.443 13.138 0.018 0.525 5.344-12.573-4.485 12.907 9.506-9.785-8.824 10.409 12.383-5.676-11.973 6.504 13.589-0.8-13.504 1.721 12.959 4.184-13.211-3.293 10.579 8.602-11.134-7.864 6.771 11.86-7.554-11.373 2.047 13.515-2.952-13.345-2.952 13.345 1.968-12.996 0.079-0.519-0.291 0.436-7.263 10.936 6.771-11.859-0.428 0.301-10.707 7.562 10.579-8.602-13.211 3.293 12.959-4.184-13.504-1.721 13.589 0.8-0.46-0.249-11.512-6.256 12.384 5.676-8.825-10.408 9.14 9.411zM15.25 14.192l-0.648 0.404-0.461 0.611-0.209 0.738 0.070 0.763 0.34 0.686 0.564 0.517 0.712 0.276h0.763l0.712-0.276 0.564-0.517 0.34-0.686 0.070-0.763-0.209-0.738-0.46-0.612-0.648-0.403-0.751-0.141-0.75 0.141z"></path>
    </symbol>
  </defs>
</svg>
